<svg width="42" height="37" viewBox="0 0 42 37" fill="none" xmlns="http://www.w3.org/2000/svg">
<path fill-rule="evenodd" clip-rule="evenodd" d="M36.9393 18.5828C36.9393 18.1527 36.7684 17.7402 36.4643 17.436C36.1601 17.1319 35.7476 16.961 35.3175 16.961H5.04369C4.61355 16.961 4.20104 17.1319 3.89689 17.436C3.59274 17.7402 3.42188 18.1527 3.42188 18.5828C3.42188 19.0129 3.59274 19.4255 3.89689 19.7296C4.20104 20.0338 4.61355 20.2046 5.04369 20.2046H35.3175C35.7476 20.2046 36.1601 20.0338 36.4643 19.7296C36.7684 19.4255 36.9393 19.0129 36.9393 18.5828ZM36.9393 7.77074C36.9393 7.34061 36.7684 6.92809 36.4643 6.62394C36.1601 6.31979 35.7476 6.14893 35.3175 6.14893H5.04369C4.61355 6.14893 4.20104 6.31979 3.89689 6.62394C3.59274 6.92809 3.42188 7.34061 3.42188 7.77074C3.42188 8.20087 3.59274 8.61338 3.89689 8.91753C4.20104 9.22168 4.61355 9.39255 5.04369 9.39255H35.3175C35.7476 9.39255 36.1601 9.22168 36.4643 8.91753C36.7684 8.61338 36.9393 8.20087 36.9393 7.77074ZM36.9393 29.3949C36.9393 28.9648 36.7684 28.5522 36.4643 28.2481C36.1601 27.9439 35.7476 27.7731 35.3175 27.7731H5.04369C4.61355 27.7731 4.20104 27.9439 3.89689 28.2481C3.59274 28.5522 3.42188 28.9648 3.42188 29.3949C3.42188 29.825 3.59274 30.2375 3.89689 30.5417C4.20104 30.8458 4.61355 31.0167 5.04369 31.0167H35.3175C35.7476 31.0167 36.1601 30.8458 36.4643 30.5417C36.7684 30.2375 36.9393 29.825 36.9393 29.3949Z" fill="#294F74"/>
</svg>
